<svg width="37" height="37" viewBox="0 0 37 37" fill="none" xmlns="http://www.w3.org/2000/svg">
<path d="M18.5 27C23.15 27 27 23.1417 27 18.5C27 13.85 23.1417 10 18.4917 10C13.85 10 10 13.85 10 18.5C10 23.1417 13.8583 27 18.5 27ZM18.5 25.5834C14.5667 25.5834 11.425 22.4334 11.425 18.5C11.425 14.5667 14.5583 11.4167 18.4917 11.4167C22.4251 11.4167 25.5834 14.5667 25.5834 18.5C25.5834 22.4334 22.4334 25.5834 18.5 25.5834ZM18.4834 24.3167C21.725 24.3167 24.3084 21.725 24.3 18.4917C24.2917 15.2667 21.7083 12.675 18.475 12.675C15.2417 12.675 12.675 15.2583 12.675 18.4917C12.675 21.7334 15.25 24.3167 18.4834 24.3167Z" fill="#9BA0A5"/>
</svg>
