<svg width="40" height="37" viewBox="0 0 40 37" fill="none" xmlns="http://www.w3.org/2000/svg">
<path d="M17.251 26.1663H21.874V20.2736C21.874 19.9014 21.6336 19.6585 21.2651 19.6585H17.8679C17.4913 19.6585 17.251 19.9014 17.251 20.2736V26.1663ZM14.1182 27H24.9587C26.0964 27 26.7614 26.3444 26.7614 25.2112V16.267L25.4714 15.3766V24.8793C25.4714 25.4054 25.191 25.6968 24.6863 25.6968H14.3907C13.8779 25.6968 13.5975 25.4054 13.5975 24.8793V15.3847L12.3075 16.267V25.2112C12.3075 26.3444 12.9725 27 14.1182 27ZM10 17.991C10 18.3229 10.2564 18.6386 10.689 18.6386C10.9134 18.6386 11.0977 18.5172 11.2659 18.3796L19.286 11.5804C19.4623 11.4185 19.6786 11.4185 19.855 11.5804L27.8751 18.3796C28.0353 18.5172 28.2196 18.6386 28.444 18.6386C28.8205 18.6386 29.125 18.4039 29.125 18.0154C29.125 17.7725 29.0449 17.6107 28.8766 17.4649L20.536 10.3825C19.9431 9.87252 19.2059 9.87252 18.605 10.3825L10.2564 17.4649C10.0801 17.6107 10 17.8049 10 17.991ZM24.7503 14.3406L26.7614 16.0565V12.317C26.7614 11.9608 26.5371 11.7342 26.1845 11.7342H25.3272C24.9827 11.7342 24.7503 11.9608 24.7503 12.317V14.3406Z" fill="#9BA0A5"/>
</svg>
