<svg width="38" height="37" viewBox="0 0 38 37" fill="none" xmlns="http://www.w3.org/2000/svg">
<path d="M12.7025 27H22.8065C24.3557 27 25.2508 26.105 25.2508 24.332V15.1316L23.8651 16.5173V24.2631C23.8651 25.1582 23.3832 25.6144 22.7893 25.6144H12.7283C11.8676 25.6144 11.3857 25.1582 11.3857 24.2631V14.4947C11.3857 13.5996 11.8676 13.1349 12.7283 13.1349H20.5688L21.9544 11.7492H12.7025C10.9123 11.7492 10 12.6443 10 14.4173V24.332C10 26.1136 10.9123 27 12.7025 27ZM15.8352 21.423L17.5135 20.6914L25.552 12.6615L24.3729 11.4996L16.343 19.5295L15.5684 21.1476C15.4996 21.2939 15.6717 21.4918 15.8352 21.423ZM26.1889 12.0333L26.8085 11.3964C27.1012 11.0865 27.1012 10.6734 26.8085 10.3894L26.6106 10.1828C26.3438 9.91605 25.9221 9.95047 25.6381 10.2259L25.0098 10.8455L26.1889 12.0333Z" fill="#9BA0A5"/>
</svg>
