<svg width="39" height="37" viewBox="0 0 39 37" fill="none" xmlns="http://www.w3.org/2000/svg">
<path d="M12.976 27H25.9224C27.9032 27 28.8889 26.0396 28.8889 24.1374V12.8626C28.8889 10.9603 27.9032 10 25.9224 10H12.976C10.9951 10 10 10.9511 10 12.8626V24.1374C10 26.0488 10.9951 27 12.976 27ZM12.8338 25.5132C11.9903 25.5132 11.5259 25.0793 11.5259 24.2205V15.5128C11.5259 14.6632 11.9903 14.22 12.8338 14.22H26.0455C26.8891 14.22 27.363 14.6632 27.363 15.5128V24.2205C27.363 25.0793 26.8891 25.5132 26.0455 25.5132H12.8338ZM17.601 17.535H18.1602C18.4919 17.535 18.5962 17.4427 18.5962 17.1195V16.5747C18.5962 16.2515 18.4919 16.1499 18.1602 16.1499H17.601C17.2693 16.1499 17.1556 16.2515 17.1556 16.5747V17.1195C17.1556 17.4427 17.2693 17.535 17.601 17.535ZM20.7476 17.535H21.3068C21.6385 17.535 21.7522 17.4427 21.7522 17.1195V16.5747C21.7522 16.2515 21.6385 16.1499 21.3068 16.1499H20.7476C20.4159 16.1499 20.3022 16.2515 20.3022 16.5747V17.1195C20.3022 17.4427 20.4159 17.535 20.7476 17.535ZM23.8942 17.535H24.4534C24.785 17.535 24.8988 17.4427 24.8988 17.1195V16.5747C24.8988 16.2515 24.785 16.1499 24.4534 16.1499H23.8942C23.5624 16.1499 23.4582 16.2515 23.4582 16.5747V17.1195C23.4582 17.4427 23.5624 17.535 23.8942 17.535ZM14.4545 20.5546H15.0042C15.3454 20.5546 15.4496 20.4622 15.4496 20.139V19.5942C15.4496 19.2711 15.3454 19.1787 15.0042 19.1787H14.4545C14.1133 19.1787 14.009 19.2711 14.009 19.5942V20.139C14.009 20.4622 14.1133 20.5546 14.4545 20.5546ZM17.601 20.5546H18.1602C18.4919 20.5546 18.5962 20.4622 18.5962 20.139V19.5942C18.5962 19.2711 18.4919 19.1787 18.1602 19.1787H17.601C17.2693 19.1787 17.1556 19.2711 17.1556 19.5942V20.139C17.1556 20.4622 17.2693 20.5546 17.601 20.5546ZM20.7476 20.5546H21.3068C21.6385 20.5546 21.7522 20.4622 21.7522 20.139V19.5942C21.7522 19.2711 21.6385 19.1787 21.3068 19.1787H20.7476C20.4159 19.1787 20.3022 19.2711 20.3022 19.5942V20.139C20.3022 20.4622 20.4159 20.5546 20.7476 20.5546ZM23.8942 20.5546H24.4534C24.785 20.5546 24.8988 20.4622 24.8988 20.139V19.5942C24.8988 19.2711 24.785 19.1787 24.4534 19.1787H23.8942C23.5624 19.1787 23.4582 19.2711 23.4582 19.5942V20.139C23.4582 20.4622 23.5624 20.5546 23.8942 20.5546ZM14.4545 23.5833H15.0042C15.3454 23.5833 15.4496 23.4818 15.4496 23.1586V22.6137C15.4496 22.2906 15.3454 22.1982 15.0042 22.1982H14.4545C14.1133 22.1982 14.009 22.2906 14.009 22.6137V23.1586C14.009 23.4818 14.1133 23.5833 14.4545 23.5833ZM17.601 23.5833H18.1602C18.4919 23.5833 18.5962 23.4818 18.5962 23.1586V22.6137C18.5962 22.2906 18.4919 22.1982 18.1602 22.1982H17.601C17.2693 22.1982 17.1556 22.2906 17.1556 22.6137V23.1586C17.1556 23.4818 17.2693 23.5833 17.601 23.5833ZM20.7476 23.5833H21.3068C21.6385 23.5833 21.7522 23.4818 21.7522 23.1586V22.6137C21.7522 22.2906 21.6385 22.1982 21.3068 22.1982H20.7476C20.4159 22.1982 20.3022 22.2906 20.3022 22.6137V23.1586C20.3022 23.4818 20.4159 23.5833 20.7476 23.5833Z" fill="#9BA0A5"/>
</svg>
